<svg version="1.1" id="Layer_1" xmlns="http://www.w3.org/2000/svg" xmlns:xlink="http://www.w3.org/1999/xlink" x="0px" y="0px"
	 width="100%" viewBox="0 0 500 500" enable-background="new 0 0 500 500" xml:space="preserve">
<path fill="#FFFFFF" opacity="1.000000" stroke="none" 
	d="
M237.000000,501.000000 
	C158.000015,501.000000 79.500038,501.000000 1.000042,501.000000 
	C1.000028,334.333405 1.000028,167.666779 1.000014,1.000132 
	C167.666565,1.000088 334.333130,1.000088 500.999756,1.000044 
	C500.999847,167.666519 500.999847,334.333038 500.999939,500.999786 
	C413.166656,501.000000 325.333344,501.000000 237.000000,501.000000 
M409.160248,168.286530 
	C366.264526,168.143372 323.368774,167.997925 280.472992,167.874115 
	C279.657990,167.871765 278.842285,168.124893 277.352142,168.281906 
	C276.537079,169.532425 275.669952,170.752335 274.914642,172.037964 
	C259.148926,198.872849 243.358597,225.693375 227.660156,252.567596 
	C221.970825,262.307159 216.507324,272.178619 210.986832,282.024231 
	C210.986832,282.024231 211.023041,281.979645 210.084549,282.054962 
	C167.345459,282.054962 124.606377,282.054962 81.284691,282.054962 
	C82.103691,283.774109 82.525414,284.828247 83.082848,285.804962 
	C103.429237,321.454987 123.782646,357.101044 144.171631,392.726685 
	C144.802567,393.829132 145.820496,394.710114 147.109879,396.320435 
	C147.921204,396.447723 148.732468,396.686066 149.543839,396.686432 
	C190.796631,396.704865 232.049438,396.715515 273.302124,396.643707 
	C274.550964,396.641541 275.798309,395.756134 277.714905,395.019379 
	C278.639984,393.654266 279.662537,392.344604 280.475677,390.915802 
	C296.130463,363.408295 311.798401,335.908142 327.374023,308.355835 
	C332.322174,299.602814 337.010925,290.703156 341.971619,281.470490 
	C341.971619,281.470490 342.154694,281.083099 343.017487,281.129272 
	C385.894257,282.148865 428.771057,283.168457 472.610199,284.210938 
	C471.390137,281.772034 470.649109,280.178558 469.813141,278.636597 
	C458.478607,257.729614 447.171661,236.807495 435.773102,215.935410 
	C427.170624,200.183273 418.446777,184.497421 409.160248,168.286530 
z"/>
<path fill="#4486F3" opacity="1.000000" stroke="none" 
	d="
M277.046387,395.282532 
	C275.798309,395.756134 274.550964,396.641541 273.302124,396.643707 
	C232.049438,396.715515 190.796631,396.704865 149.543839,396.686432 
	C148.732468,396.686066 147.921204,396.447723 147.037384,395.626434 
	C161.210587,370.017487 175.498840,345.126770 189.684265,320.177551 
	C196.892761,307.499268 203.916046,294.715637 211.023041,281.979645 
	C211.023041,281.979645 210.986832,282.024231 211.232910,282.020660 
	C211.833206,282.076324 212.187439,282.135559 212.665649,282.539124 
	C234.208542,320.349792 255.627472,357.816162 277.046387,395.282532 
z"/>
<path fill="#FBBC06" opacity="1.000000" stroke="none" 
	d="
M212.541656,282.194794 
	C212.187439,282.135559 211.833206,282.076324 211.209885,282.003479 
	C216.507324,272.178619 221.970825,262.307159 227.660156,252.567596 
	C243.358597,225.693375 259.148926,198.872849 274.914642,172.037964 
	C275.669952,170.752335 276.537079,169.532425 277.736145,168.606140 
	C290.714294,190.887833 303.297394,212.851624 315.906311,234.800568 
	C324.590027,249.916687 333.309509,265.012268 342.019043,280.362854 
	C342.025116,280.608673 342.154694,281.083099 342.154694,281.083099 
	C342.154694,281.083099 341.971619,281.470490 341.439697,281.688721 
	C319.261780,281.926697 297.615723,281.924255 275.969757,281.972565 
	C254.827011,282.019714 233.684357,282.118622 212.541656,282.194794 
z"/>
<path fill="#4385F4" opacity="1.000000" stroke="none" 
	d="
M342.586090,281.106201 
	C342.154694,281.083099 342.025116,280.608673 342.340210,280.222168 
	C352.123932,264.170471 361.592834,248.505478 371.061066,232.840088 
	C383.966644,211.487595 396.871674,190.134766 409.776917,168.782074 
	C418.446777,184.497421 427.170624,200.183273 435.773102,215.935410 
	C447.171661,236.807495 458.478607,257.729614 469.813141,278.636597 
	C470.649109,280.178558 471.390137,281.772034 472.610199,284.210938 
	C428.771057,283.168457 385.894257,282.148865 342.586090,281.106201 
z"/>
<path fill="#EA4436" opacity="1.000000" stroke="none" 
	d="
M409.468597,168.534302 
	C396.871674,190.134766 383.966644,211.487595 371.061066,232.840088 
	C361.592834,248.505478 352.123932,264.170471 342.334167,279.976349 
	C333.309509,265.012268 324.590027,249.916687 315.906311,234.800568 
	C303.297394,212.851624 290.714294,190.887833 278.073517,168.594604 
	C278.842285,168.124893 279.657990,167.871765 280.472992,167.874115 
	C323.368774,167.997925 366.264526,168.143372 409.468597,168.534302 
z"/>
<path fill="#EA4437" opacity="1.000000" stroke="none" 
	d="
M210.553802,282.017303 
	C203.916046,294.715637 196.892761,307.499268 189.684265,320.177551 
	C175.498840,345.126770 161.210587,370.017487 146.811432,395.313416 
	C145.820496,394.710114 144.802567,393.829132 144.171631,392.726685 
	C123.782646,357.101044 103.429237,321.454987 83.082848,285.804962 
	C82.525414,284.828247 82.103691,283.774109 81.284691,282.054962 
	C124.606377,282.054962 167.345459,282.054962 210.553802,282.017303 
z"/>
<path fill="#34A854" opacity="1.000000" stroke="none" 
	d="
M212.665649,282.539124 
	C233.684357,282.118622 254.827011,282.019714 275.969757,281.972565 
	C297.615723,281.924255 319.261780,281.926697 341.363098,281.888763 
	C337.010925,290.703156 332.322174,299.602814 327.374023,308.355835 
	C311.798401,335.908142 296.130463,363.408295 280.475677,390.915802 
	C279.662537,392.344604 278.639984,393.654266 277.380646,395.150940 
	C255.627472,357.816162 234.208542,320.349792 212.665649,282.539124 
z"/>
</svg>